# xmcd CD database file
# Copyright (C) 1993-1996 Ti Kan
#
# Track frame offsets:
#	150
#	9027
#	32792
#	50687
#	58462
#	73257
#	95010
#	105777
#	132742
#	148842
#	164390
#	202067
#	207555
#	217585
#	226512
#	241447
#	260792
#	266212
#	283537
#
# Disc length: 4090 seconds
#
# Revision: 2
# Processed by: cddbd v1.4PL0 Copyright (c) Steve Scherf et al.
# Submitted via: Gronk 1.4
#
DISCID=290ff813
DTITLE=James Brown - Golden Classics (Double Play)
DYEAR=1900
DGENRE=blues
TTITLE0=Give It Up Or Tunit A Loose
TTITLE1=It's Too Funky In Here
TTITLE2=Doing It To Death (Gonna Have A Funky Good Time)
TTITLE3=Try Me
TTITLE4=Get On The Good Foot
TTITLE5=Prisoner Of Love
TTITLE6=Get Up Offa That Thang
TTITLE7=Georgia On My Mind
TTITLE8=I Got The Feeling
TTITLE9=It's A Man's, Man's, Man's World
TTITLE10=Super Bad - Disco Rap
TTITLE11=Cold Sweat
TTITLE12=I Can't Stand Myself (When You Touch Me)
TTITLE13=Papa's Got A Brand New Bag
TTITLE14=I Got You (I Feel Good)
TTITLE15=Sex Machine
TTITLE16=Hot Pants
TTITLE17=Please, Please, Please
TTITLE18=Jam
EXTD=Recorded Live In Concert 1980 Atlanta, Georgia Featuring M
EXTD=aceo Parker.
EXTT0=
EXTT1=
EXTT2=
EXTT3=
EXTT4=
EXTT5=
EXTT6=
EXTT7=
EXTT8=
EXTT9=
EXTT10=
EXTT11=
EXTT12=
EXTT13=
EXTT14=
EXTT15=
EXTT16=
EXTT17=
EXTT18=
PLAYORDER=
